<svg width="77" height="62" xmlns="http://www.w3.org/2000/svg" xmlns:xlink="http://www.w3.org/1999/xlink" xml:space="preserve" overflow="hidden"><g transform="translate(-230 -390)"><path d="M37.1164 16.2783C37.9706 15.5203 38.3075 14.3292 37.8623 13.2705 37.5856 12.6328 37.2848 12.0072 36.948 11.4056L36.575 10.7559C36.2141 10.1544 35.817 9.56484 35.3959 8.99938 34.7102 8.085 33.507 7.78422 32.4242 8.14516L29.0314 9.26406C27.7441 8.20531 26.2642 7.33906 24.6761 6.74953L23.9422 3.26047C23.7136 2.14156 22.8473 1.25125 21.7164 1.11891 20.9223 1.01062 20.1162 0.9625 19.2981 0.9625L19.2139 0.9625C18.3958 0.9625 17.5897 1.01062 16.7956 1.10687 15.6647 1.23922 14.7984 2.14156 14.5698 3.24844L13.8359 6.74953C12.2358 7.35109 10.768 8.20531 9.48063 9.26406L6.07578 8.15719C4.99297 7.79625 3.78984 8.09703 3.10406 9.01141 2.68297 9.57687 2.28594 10.1664 1.91297 10.768L1.55203 11.4056C1.21516 12.0072 0.914375 12.6328 0.637656 13.2825 0.1925 14.3292 0.529375 15.5203 1.38359 16.2903L4.05453 18.6725C3.92219 19.4786 3.85 20.3208 3.85 21.175 3.85 22.0292 3.92219 22.8714 4.05453 23.6895L1.38359 26.0717C0.529375 26.8297 0.1925 28.0208 0.637656 29.0795 0.914375 29.7172 1.21516 30.3428 1.55203 30.9564L1.91297 31.582C2.27391 32.1956 2.67094 32.7731 3.10406 33.3386 3.78984 34.253 4.99297 34.5537 6.07578 34.1928L9.46859 33.0739C10.7559 34.1327 12.2358 34.9989 13.8239 35.5884L14.5578 39.0895C14.7864 40.2084 15.6527 41.0988 16.7836 41.2311 17.5897 41.3273 18.4078 41.3755 19.238 41.3755 20.0681 41.3755 20.8862 41.3273 21.6923 41.2311 22.8233 41.0988 23.6895 40.1964 23.9181 39.0895L24.652 35.5884C26.2522 34.9869 27.72 34.1327 29.0073 33.0739L32.4002 34.1928C33.483 34.5537 34.6861 34.253 35.3719 33.3386 35.793 32.7731 36.19 32.1956 36.5509 31.582L36.9239 30.9323C37.2608 30.3308 37.5616 29.7052 37.8383 29.0675 38.2834 28.0208 37.9466 26.8297 37.0923 26.0597L34.4214 23.6775C34.5537 22.8594 34.6259 22.0172 34.6259 21.163 34.6259 20.3088 34.5537 19.4666 34.4214 18.6484L37.0923 16.2662ZM13.475 21.175C13.475 17.9855 16.0605 15.4 19.25 15.4 22.4395 15.4 25.025 17.9855 25.025 21.175 25.025 24.3645 22.4395 26.95 19.25 26.95 16.0605 26.95 13.475 24.3645 13.475 21.175ZM60.7217 60.2164C61.4797 61.0706 62.6708 61.4075 63.7295 60.9623 64.3672 60.6856 64.9928 60.3848 65.5944 60.048L66.2441 59.675C66.8456 59.3141 67.4352 58.917 68.0006 58.4959 68.915 57.8102 69.2158 56.607 68.8548 55.5242L67.7359 52.1314C68.7947 50.8441 69.6609 49.3642 70.2505 47.7761L73.7516 47.0422C74.8705 46.8136 75.7608 45.9473 75.8931 44.8164 75.9894 44.0103 76.0375 43.1922 76.0375 42.362 76.0375 41.5319 75.9894 40.7137 75.8931 39.9077 75.7608 38.7767 74.8584 37.9105 73.7516 37.6819L70.2505 36.9359C69.6489 35.3358 68.7947 33.868 67.7359 32.5806L68.8548 29.1878C69.2158 28.105 68.915 26.9019 68.0006 26.2161 67.4352 25.795 66.8456 25.398 66.2441 25.025L65.6064 24.6641C65.0048 24.3272 64.3792 24.0264 63.7295 23.7497 62.6828 23.3045 61.4917 23.6414 60.7217 24.4956L58.3395 27.1666C57.5214 27.0342 56.6792 26.962 55.825 26.962 54.9708 26.962 54.1286 27.0342 53.3105 27.1666L50.9283 24.4956C50.1703 23.6414 48.9792 23.3045 47.9205 23.7497 47.2828 24.0264 46.6572 24.3272 46.0436 24.6641L45.418 25.025C44.8044 25.3859 44.2269 25.783 43.6614 26.2161 42.747 26.9019 42.4462 28.105 42.8072 29.1878L43.9261 32.5806C42.8673 33.868 42.0011 35.3478 41.4116 36.9359L37.9105 37.6578C36.7916 37.8864 35.9012 38.7527 35.7689 39.8836 35.6727 40.6897 35.6245 41.5078 35.6245 42.338 35.6245 43.1681 35.6727 43.9862 35.7689 44.7923 35.9012 45.9233 36.8036 46.7895 37.9105 47.0181L41.4116 47.752C42.0131 49.3522 42.8673 50.82 43.9261 52.1073L42.8072 55.5002C42.4462 56.583 42.747 57.7861 43.6614 58.4719 44.2269 58.893 44.8044 59.29 45.418 59.6509L46.0677 60.0239C46.6692 60.3608 47.2948 60.6616 47.9325 60.9383 48.9792 61.3834 50.1703 61.0466 50.9403 60.1923L53.3225 57.5214C54.1406 57.6538 54.9828 57.7259 55.837 57.7259 56.6912 57.7259 57.5334 57.6538 58.3516 57.5214L60.7337 60.1923ZM55.825 36.575C59.0145 36.575 61.6 39.1605 61.6 42.35 61.6 45.5395 59.0145 48.125 55.825 48.125 52.6355 48.125 50.05 45.5395 50.05 42.35 50.05 39.1605 52.6355 36.575 55.825 36.575Z" fill="#FFFFFF" transform="matrix(1 0 0 1.00649 230 390)"/></g></svg>