<svg width="52" height="62" xmlns="http://www.w3.org/2000/svg" xmlns:xlink="http://www.w3.org/1999/xlink" xml:space="preserve" overflow="hidden"><defs><clipPath id="clip0"><rect x="639" y="391" width="52" height="62"/></clipPath></defs><g clip-path="url(#clip0)" transform="translate(-639 -391)"><path d="M1.69531 0.266406C2.72461-0.205859 3.93555-0.0363281 4.79531 0.702344L9.6875 4.89219 14.5797 0.702344C15.6695-0.230078 17.2801-0.230078 18.3578 0.702344L23.25 4.89219 28.1422 0.702344C29.232-0.230078 30.8426-0.230078 31.9203 0.702344L36.8125 4.89219 41.7047 0.702344C42.5645-0.0363281 43.7754-0.205859 44.8047 0.266406 45.834 0.738672 46.5 1.76797 46.5 2.90625L46.5 59.0938C46.5 60.232 45.834 61.2613 44.8047 61.7336 43.7754 62.2059 42.5645 62.0363 41.7047 61.2977L36.8125 57.1078 31.9203 61.2977C30.8305 62.2301 29.2199 62.2301 28.1422 61.2977L23.25 57.1078 18.3578 61.2977C17.268 62.2301 15.6574 62.2301 14.5797 61.2977L9.6875 57.1078 4.79531 61.2977C3.93555 62.0363 2.72461 62.2059 1.69531 61.7336 0.666016 61.2613 0 60.232 0 59.0938L0 2.90625C0 1.76797 0.666016 0.738672 1.69531 0.266406ZM11.625 17.4375C10.5594 17.4375 9.6875 18.3094 9.6875 19.375 9.6875 20.4406 10.5594 21.3125 11.625 21.3125L34.875 21.3125C35.9406 21.3125 36.8125 20.4406 36.8125 19.375 36.8125 18.3094 35.9406 17.4375 34.875 17.4375L11.625 17.4375ZM9.6875 42.625C9.6875 43.6906 10.5594 44.5625 11.625 44.5625L34.875 44.5625C35.9406 44.5625 36.8125 43.6906 36.8125 42.625 36.8125 41.5594 35.9406 40.6875 34.875 40.6875L11.625 40.6875C10.5594 40.6875 9.6875 41.5594 9.6875 42.625ZM11.625 29.0625C10.5594 29.0625 9.6875 29.9344 9.6875 31 9.6875 32.0656 10.5594 32.9375 11.625 32.9375L34.875 32.9375C35.9406 32.9375 36.8125 32.0656 36.8125 31 36.8125 29.9344 35.9406 29.0625 34.875 29.0625L11.625 29.0625Z" fill="#FFFFFF" transform="matrix(1.11828 0 0 1 639 391)"/></g></svg>