<svg width="76" height="62" xmlns="http://www.w3.org/2000/svg" xmlns:xlink="http://www.w3.org/1999/xlink" xml:space="preserve" overflow="hidden"><g transform="translate(-993 -391)"><path d="M5.7 0C2.55312 0 0 2.55312 0 5.7L0 43.7C0 46.8469 2.55312 49.4 5.7 49.4L7.6 49.4C7.6 55.6937 12.7063 60.8 19 60.8 25.2937 60.8 30.4 55.6937 30.4 49.4L45.6 49.4C45.6 55.6937 50.7062 60.8 57 60.8 63.2938 60.8 68.4 55.6937 68.4 49.4L72.2 49.4C74.3019 49.4 76 47.7019 76 45.6 76 43.4981 74.3019 41.8 72.2 41.8L72.2 34.2 72.2 30.4 72.2 28.1794C72.2 26.1606 71.4044 24.225 69.9794 22.8L60.8 13.6206C59.375 12.1956 57.4394 11.4 55.4206 11.4L49.4 11.4 49.4 5.7C49.4 2.55312 46.8469 0 43.7 0L5.7 0ZM49.4 19 55.4206 19 64.6 28.1794 64.6 30.4 49.4 30.4 49.4 19ZM13.3 49.4C13.3 46.2519 15.8519 43.7 19 43.7 22.1481 43.7 24.7 46.2519 24.7 49.4 24.7 52.5481 22.1481 55.1 19 55.1 15.8519 55.1 13.3 52.5481 13.3 49.4ZM57 43.7C60.1481 43.7 62.7 46.2519 62.7 49.4 62.7 52.5481 60.1481 55.1 57 55.1 53.8519 55.1 51.3 52.5481 51.3 49.4 51.3 46.2519 53.8519 43.7 57 43.7Z" fill="#FFFFFF" transform="matrix(1 0 0 1.01974 993 391)"/></g></svg>