<svg width="83" height="73" xmlns="http://www.w3.org/2000/svg" xmlns:xlink="http://www.w3.org/1999/xlink" xml:space="preserve" overflow="hidden"><defs><clipPath id="clip0"><rect x="227" y="560" width="83" height="73"/></clipPath></defs><g clip-path="url(#clip0)" transform="translate(-227 -560)"><path d="M9.125 9.125C4.09199 9.125 0 13.217 0 18.25L0 54.75C0 59.783 4.09199 63.875 9.125 63.875L73 63.875C78.033 63.875 82.125 59.783 82.125 54.75L82.125 18.25C82.125 13.217 78.033 9.125 73 9.125L9.125 9.125ZM15.9688 31.9375 38.7812 31.9375C40.0359 31.9375 41.0625 32.9641 41.0625 34.2188 41.0625 35.4734 40.0359 36.5 38.7812 36.5L15.9688 36.5C14.7141 36.5 13.6875 35.4734 13.6875 34.2188 13.6875 32.9641 14.7141 31.9375 15.9688 31.9375ZM13.6875 47.9062C13.6875 46.6516 14.7141 45.625 15.9688 45.625L66.1562 45.625C67.4109 45.625 68.4375 46.6516 68.4375 47.9062 68.4375 49.1609 67.4109 50.1875 66.1562 50.1875L15.9688 50.1875C14.7141 50.1875 13.6875 49.1609 13.6875 47.9062ZM53.6094 22.8125 65.0156 22.8125C66.9119 22.8125 68.4375 24.3381 68.4375 26.2344L68.4375 33.0781C68.4375 34.9744 66.9119 36.5 65.0156 36.5L53.6094 36.5C51.7131 36.5 50.1875 34.9744 50.1875 33.0781L50.1875 26.2344C50.1875 24.3381 51.7131 22.8125 53.6094 22.8125Z" fill="#FFFFFF" transform="matrix(1.01065 0 0 1 227 560)"/></g></svg>