<svg width="54" height="64" xmlns="http://www.w3.org/2000/svg" xmlns:xlink="http://www.w3.org/1999/xlink" xml:space="preserve" overflow="hidden"><g transform="translate(-635 -566)"><path d="M11.5714 0C5.18304 0 0 5.18304 0 11.5714L0 50.1429C0 56.5312 5.18304 61.7143 11.5714 61.7143L46.2857 61.7143 50.1429 61.7143C52.2763 61.7143 54 59.9906 54 57.8571 54 55.7237 52.2763 54 50.1429 54L50.1429 46.2857C52.2763 46.2857 54 44.5621 54 42.4286L54 3.85714C54 1.72366 52.2763 0 50.1429 0L46.2857 0 11.5714 0ZM11.5714 46.2857 42.4286 46.2857 42.4286 54 11.5714 54C9.43795 54 7.71429 52.2763 7.71429 50.1429 7.71429 48.0094 9.43795 46.2857 11.5714 46.2857ZM15.4286 17.3571C15.4286 16.2964 16.2964 15.4286 17.3571 15.4286L40.5 15.4286C41.5607 15.4286 42.4286 16.2964 42.4286 17.3571 42.4286 18.4179 41.5607 19.2857 40.5 19.2857L17.3571 19.2857C16.2964 19.2857 15.4286 18.4179 15.4286 17.3571ZM17.3571 23.1429 40.5 23.1429C41.5607 23.1429 42.4286 24.0107 42.4286 25.0714 42.4286 26.1321 41.5607 27 40.5 27L17.3571 27C16.2964 27 15.4286 26.1321 15.4286 25.0714 15.4286 24.0107 16.2964 23.1429 17.3571 23.1429Z" fill="#FFFFFF" transform="matrix(1 0 0 1.03704 635 566)"/></g></svg>