<svg width="82" height="65" xmlns="http://www.w3.org/2000/svg" xmlns:xlink="http://www.w3.org/1999/xlink" xml:space="preserve" overflow="hidden"><g transform="translate(-988 -565)"><path d="M32.5 8.125 48.75 8.125 48.75 16.25 32.5 16.25 32.5 8.125ZM30.4688 0C27.1045 0 24.375 2.72949 24.375 6.09375L24.375 18.2812C24.375 21.6455 27.1045 24.375 30.4688 24.375L36.5625 24.375 36.5625 28.4375 4.0625 28.4375C1.81543 28.4375 0 30.2529 0 32.5 0 34.7471 1.81543 36.5625 4.0625 36.5625L16.25 36.5625 16.25 40.625 10.1562 40.625C6.79199 40.625 4.0625 43.3545 4.0625 46.7188L4.0625 58.9062C4.0625 62.2705 6.79199 65 10.1562 65L30.4688 65C33.833 65 36.5625 62.2705 36.5625 58.9062L36.5625 46.7188C36.5625 43.3545 33.833 40.625 30.4688 40.625L24.375 40.625 24.375 36.5625 56.875 36.5625 56.875 40.625 50.7812 40.625C47.417 40.625 44.6875 43.3545 44.6875 46.7188L44.6875 58.9062C44.6875 62.2705 47.417 65 50.7812 65L71.0938 65C74.458 65 77.1875 62.2705 77.1875 58.9062L77.1875 46.7188C77.1875 43.3545 74.458 40.625 71.0938 40.625L65 40.625 65 36.5625 77.1875 36.5625C79.4346 36.5625 81.25 34.7471 81.25 32.5 81.25 30.2529 79.4346 28.4375 77.1875 28.4375L44.6875 28.4375 44.6875 24.375 50.7812 24.375C54.1455 24.375 56.875 21.6455 56.875 18.2812L56.875 6.09375C56.875 2.72949 54.1455 0 50.7812 0L30.4688 0ZM12.1875 56.875 12.1875 48.75 28.4375 48.75 28.4375 56.875 12.1875 56.875ZM52.8125 48.75 69.0625 48.75 69.0625 56.875 52.8125 56.875 52.8125 48.75Z" fill="#FFFFFF" transform="matrix(1.00923 0 0 1 988 565)"/></g></svg>